<?xml version="1.0" encoding="UTF-8"?>
<!DOCTYPE svg PUBLIC "-//W3C//DTD SVG 1.1//EN" "http://www.w3.org/Graphics/SVG/1.1/DTD/svg11.dtd">
<svg xmlns="http://www.w3.org/2000/svg" version="1.1" width="411px" height="869px" style="shape-rendering:geometricPrecision; text-rendering:geometricPrecision; image-rendering:optimizeQuality; fill-rule:evenodd; clip-rule:evenodd" xmlns:xlink="http://www.w3.org/1999/xlink">
<g><path style="opacity:1" fill="#c3d4e7" d="M -0.5,-0.5 C 136.5,-0.5 273.5,-0.5 410.5,-0.5C 410.5,134.5 410.5,269.5 410.5,404.5C 405.52,405.015 400.854,404.348 396.5,402.5C 390.831,393.316 385.331,383.983 380,374.5C 378.053,359.871 376.387,345.205 375,330.5C 374.654,322.051 372.654,314.051 369,306.5C 361.965,299.297 354.798,292.297 347.5,285.5C 347.5,284.833 347.167,284.5 346.5,284.5C 346.167,253.493 346.5,222.493 347.5,191.5C 348.086,191.291 348.586,190.957 349,190.5C 349.667,186.5 349.667,182.5 349,178.5C 348.586,178.043 348.086,177.709 347.5,177.5C 346.673,173.541 346.173,169.541 346,165.5C 341.578,161.243 336.245,159.243 330,159.5C 329.83,150.657 329.33,141.99 328.5,133.5C 319.009,132.342 309.342,132.175 299.5,133C 298.517,141.415 298.183,149.915 298.5,158.5C 283.97,159.697 269.637,161.031 255.5,162.5C 249.11,145.903 239.777,131.069 227.5,118C 216.772,111.136 205.439,105.636 193.5,101.5C 193.5,100.833 193.5,100.167 193.5,99.5C 197.731,99.5963 201.065,97.9297 203.5,94.5C 205.531,91.2924 205.865,87.959 204.5,84.5C 205.11,83.609 205.443,82.609 205.5,81.5C 205.634,79.7085 205.301,78.0418 204.5,76.5C 205.715,72.9674 205.715,69.3008 204.5,65.5C 206.293,62.7413 206.793,59.7413 206,56.5C 205.184,55.1772 204.017,54.5106 202.5,54.5C 202.5,54.1667 202.5,53.8333 202.5,53.5C 205.112,51.9478 206.445,49.6145 206.5,46.5C 207.651,41.3497 207.817,36.0164 207,30.5C 206.107,29.9186 205.107,29.5852 204,29.5C 201,30.5 198,31.5 195,32.5C 185.233,29.8396 175.4,29.3396 165.5,31C 158.822,33.1804 153.822,37.3471 150.5,43.5C 147.611,51.058 148.278,58.3914 152.5,65.5C 152.018,66.4163 151.685,67.4163 151.5,68.5C 153.812,71.4573 155.312,74.7907 156,78.5C 157.026,81.6928 159.192,83.0262 162.5,82.5C 163.405,90.3785 160.738,96.3785 154.5,100.5C 136.464,103.769 120.63,111.436 107,123.5C 105,126.833 103,130.167 101,133.5C 99.4116,142.451 98.245,151.451 97.5,160.5C 87.8276,160.334 78.1609,160.5 68.5,161C 67,162.5 65.5,164 64,165.5C 63.5001,182.83 63.3334,200.163 63.5,217.5C 63.1667,217.5 62.8333,217.5 62.5,217.5C 61.209,217.263 60.209,217.596 59.5,218.5C 56.6345,221.413 55.3012,225.079 55.5,229.5C 54.7784,229.918 54.2784,230.584 54,231.5C 50.4142,247.428 47.0808,263.428 44,279.5C 37.7437,291.68 31.7437,304.013 26,316.5C 23.9734,336.915 21.3067,357.248 18,377.5C 14.5825,383.337 10.9158,389.004 7,394.5C 4.99372,397.536 4.16039,400.869 4.5,404.5C 2.83333,404.5 1.16667,404.5 -0.5,404.5C -0.5,269.5 -0.5,134.5 -0.5,-0.5 Z"/></g>
<g><path style="opacity:1" fill="#1a4d7a" d="M 206.5,46.5 C 206.657,45.1266 206.49,43.7932 206,42.5C 205.5,43 205,43.5 204.5,44C 199.313,44.6374 194.146,44.4708 189,43.5C 179.571,45.1494 170.405,47.4827 161.5,50.5C 159.833,50.3333 158.167,50.1667 156.5,50C 154.208,47.8843 152.208,45.7176 150.5,43.5C 153.822,37.3471 158.822,33.1804 165.5,31C 175.4,29.3396 185.233,29.8396 195,32.5C 198,31.5 201,30.5 204,29.5C 205.107,29.5852 206.107,29.9186 207,30.5C 207.817,36.0164 207.651,41.3497 206.5,46.5 Z"/></g>
<g><path style="opacity:1" fill="#fefdfd" d="M 247.5,41.5 C 272.371,43.7907 297.037,46.9574 321.5,51C 323.974,53.0411 324.974,55.7077 324.5,59C 322.906,71.8232 321.406,84.6565 320,97.5C 318.891,99.8147 317.057,101.315 314.5,102C 299.653,101 284.82,99.5001 270,97.5C 266.101,98.3674 262.934,100.534 260.5,104C 253.747,109.155 246.414,110.488 238.5,108C 243.916,104.669 246.916,99.8356 247.5,93.5C 241.266,93.4318 238.266,90.2651 238.5,84C 240.041,71.5051 241.541,59.0051 243,46.5C 244.517,44.7605 246.017,43.0938 247.5,41.5 Z"/></g>
<g><path style="opacity:1" fill="#0e2b44" d="M 206.5,46.5 C 206.445,49.6145 205.112,51.9478 202.5,53.5C 200.833,52.1667 199.167,50.8333 197.5,49.5C 197.389,48.8826 197.056,48.3826 196.5,48C 192.311,47.1881 188.311,47.3547 184.5,48.5C 175.726,48.7164 169.392,52.7164 165.5,60.5C 164.833,60.8333 164.167,61.1667 163.5,61.5C 161.187,62.5005 159.187,63.8338 157.5,65.5C 155.833,65.5 154.167,65.5 152.5,65.5C 148.278,58.3914 147.611,51.058 150.5,43.5C 152.208,45.7176 154.208,47.8843 156.5,50C 158.167,50.1667 159.833,50.3333 161.5,50.5C 170.405,47.4827 179.571,45.1494 189,43.5C 194.146,44.4708 199.313,44.6374 204.5,44C 205,43.5 205.5,43 206,42.5C 206.49,43.7932 206.657,45.1266 206.5,46.5 Z"/></g>
<g><path style="opacity:1" fill="#6d6a64" d="M 184.5,48.5 C 188.311,47.3547 192.311,47.1881 196.5,48C 197.056,48.3826 197.389,48.8826 197.5,49.5C 193.232,48.6274 188.898,48.2941 184.5,48.5 Z"/></g>
<g><path style="opacity:1" fill="#f2c494" d="M 184.5,48.5 C 188.898,48.2941 193.232,48.6274 197.5,49.5C 199.167,50.8333 200.833,52.1667 202.5,53.5C 202.5,53.8333 202.5,54.1667 202.5,54.5C 201.5,54.5 200.5,54.5 199.5,54.5C 198.167,54.5 196.833,54.5 195.5,54.5C 192.524,56.3419 189.191,57.3419 185.5,57.5C 184.848,56.2749 183.681,55.6083 182,55.5C 180.615,55.5143 179.449,55.8476 178.5,56.5C 177.391,56.5569 176.391,56.8902 175.5,57.5C 172.377,59.1152 169.044,60.1152 165.5,60.5C 169.392,52.7164 175.726,48.7164 184.5,48.5 Z"/></g>
<g><path style="opacity:1" fill="#343347" d="M 195.5,54.5 C 196.833,54.5 198.167,54.5 199.5,54.5C 199.179,56.0481 198.179,56.7148 196.5,56.5C 195.662,56.1583 195.328,55.4916 195.5,54.5 Z"/></g>
<g><path style="opacity:1" fill="#2e3448" d="M 185.5,57.5 C 182.941,57.8016 180.607,57.4682 178.5,56.5C 179.449,55.8476 180.615,55.5143 182,55.5C 183.681,55.6083 184.848,56.2749 185.5,57.5 Z"/></g>
<g><path style="opacity:1" fill="#c68c85" d="M 178.5,56.5 C 180.607,57.4682 182.941,57.8016 185.5,57.5C 186.568,58.4345 187.901,58.7678 189.5,58.5C 189.795,60.7354 189.461,62.7354 188.5,64.5C 188.5,62.8333 188.5,61.1667 188.5,59.5C 184.167,59.5 179.833,59.5 175.5,59.5C 175.5,58.8333 175.5,58.1667 175.5,57.5C 176.391,56.8902 177.391,56.5569 178.5,56.5 Z"/></g>
<g><path style="opacity:1" fill="#f69d75" d="M 195.5,54.5 C 195.328,55.4916 195.662,56.1583 196.5,56.5C 195.846,62.4673 198.179,65.4673 203.5,65.5C 201.197,66.2307 198.864,66.564 196.5,66.5C 198.854,68.2461 199.854,70.5794 199.5,73.5C 197.621,74.3414 195.621,74.6747 193.5,74.5C 192.058,71.7704 191.058,68.7704 190.5,65.5C 189.272,68.0715 187.272,69.4048 184.5,69.5C 186.555,68.4412 187.889,66.7746 188.5,64.5C 189.461,62.7354 189.795,60.7354 189.5,58.5C 187.901,58.7678 186.568,58.4345 185.5,57.5C 189.191,57.3419 192.524,56.3419 195.5,54.5 Z"/></g>
<g><path style="opacity:1" fill="#d6bdbb" d="M 199.5,54.5 C 200.5,54.5 201.5,54.5 202.5,54.5C 204.017,54.5106 205.184,55.1772 206,56.5C 206.793,59.7413 206.293,62.7413 204.5,65.5C 204.167,65.5 203.833,65.5 203.5,65.5C 198.179,65.4673 195.846,62.4673 196.5,56.5C 198.179,56.7148 199.179,56.0481 199.5,54.5 Z"/></g>
<g><path style="opacity:1" fill="#f4c494" d="M 184.5,69.5 C 187.272,69.4048 189.272,68.0715 190.5,65.5C 191.058,68.7704 192.058,71.7704 193.5,74.5C 187.91,75.68 185.91,79.0134 187.5,84.5C 188.518,83.8075 189.518,83.1408 190.5,82.5C 192.421,83.3627 194.421,84.0293 196.5,84.5C 195.024,86.2296 195.358,87.5629 197.5,88.5C 198.782,87.0416 198.782,85.7082 197.5,84.5C 199.142,83.197 200.809,81.8637 202.5,80.5C 203.209,81.404 204.209,81.7373 205.5,81.5C 205.443,82.609 205.11,83.609 204.5,84.5C 201.899,90.0622 197.566,91.8956 191.5,90C 188.833,88.3333 186.167,86.6667 183.5,85C 180.443,84.7435 177.443,84.2435 174.5,83.5C 169.019,77.7221 165.352,71.0554 163.5,63.5C 163.5,63.1667 163.5,62.8333 163.5,62.5C 166.872,61.5985 170.205,61.5985 173.5,62.5C 175.058,68.7988 178.725,71.1321 184.5,69.5 Z"/></g>
<g><path style="opacity:1" fill="#8e5759" d="M 163.5,61.5 C 163.5,61.8333 163.5,62.1667 163.5,62.5C 163.5,62.8333 163.5,63.1667 163.5,63.5C 161.896,64.287 161.229,65.6203 161.5,67.5C 160.005,67.0113 158.671,66.3446 157.5,65.5C 159.187,63.8338 161.187,62.5005 163.5,61.5 Z"/></g>
<g><path style="opacity:1" fill="#dccac1" d="M 175.5,59.5 C 179.833,59.5 184.167,59.5 188.5,59.5C 188.5,61.1667 188.5,62.8333 188.5,64.5C 187.889,66.7746 186.555,68.4412 184.5,69.5C 181.956,69.8957 179.789,69.229 178,67.5C 177.205,65.0988 176.038,62.9321 174.5,61C 175.056,60.6174 175.389,60.1174 175.5,59.5 Z"/></g>
<g><path style="opacity:1" fill="#f7c696" d="M 203.5,65.5 C 203.833,65.5 204.167,65.5 204.5,65.5C 205.715,69.3008 205.715,72.9674 204.5,76.5C 203.599,74.2729 201.933,73.2729 199.5,73.5C 199.854,70.5794 198.854,68.2461 196.5,66.5C 198.864,66.564 201.197,66.2307 203.5,65.5 Z"/></g>
<g><path style="opacity:1" fill="#f2967e" d="M 175.5,57.5 C 175.5,58.1667 175.5,58.8333 175.5,59.5C 175.389,60.1174 175.056,60.6174 174.5,61C 176.038,62.9321 177.205,65.0988 178,67.5C 179.789,69.229 181.956,69.8957 184.5,69.5C 178.725,71.1321 175.058,68.7988 173.5,62.5C 170.205,61.5985 166.872,61.5985 163.5,62.5C 163.5,62.1667 163.5,61.8333 163.5,61.5C 164.167,61.1667 164.833,60.8333 165.5,60.5C 169.044,60.1152 172.377,59.1152 175.5,57.5 Z"/></g>
<g><path style="opacity:1" fill="#f15c54" d="M 261.5,68.5 C 266.984,68.4809 268.65,70.9809 266.5,76C 259.745,76.7558 258.078,74.2558 261.5,68.5 Z"/></g>
<g><path style="opacity:1" fill="#f26259" d="M 279.5,70.5 C 285.191,70.5544 286.858,73.2211 284.5,78.5C 277.409,79.5311 275.742,76.8644 279.5,70.5 Z"/></g>
<g><path style="opacity:1" fill="#f4c494" d="M 152.5,65.5 C 154.167,65.5 155.833,65.5 157.5,65.5C 158.671,66.3446 160.005,67.0113 161.5,67.5C 162.741,72.1088 164.074,76.7755 165.5,81.5C 164.508,81.3284 163.842,81.6618 163.5,82.5C 163.167,82.5 162.833,82.5 162.5,82.5C 159.192,83.0262 157.026,81.6928 156,78.5C 155.312,74.7907 153.812,71.4573 151.5,68.5C 151.685,67.4163 152.018,66.4163 152.5,65.5 Z"/></g>
<g><path style="opacity:1" fill="#faa674" d="M 155.5,67.5 C 160.709,69.0465 162.376,72.3798 160.5,77.5C 157.866,74.5654 156.199,71.232 155.5,67.5 Z"/></g>
<g><path style="opacity:1" fill="#2f435e" d="M 199.5,73.5 C 201.933,73.2729 203.599,74.2729 204.5,76.5C 205.301,78.0418 205.634,79.7085 205.5,81.5C 204.209,81.7373 203.209,81.404 202.5,80.5C 202.047,79.5416 201.381,78.7083 200.5,78C 195.543,76.317 192.21,77.817 190.5,82.5C 189.518,83.1408 188.518,83.8075 187.5,84.5C 185.91,79.0134 187.91,75.68 193.5,74.5C 195.621,74.6747 197.621,74.3414 199.5,73.5 Z"/></g>
<g><path style="opacity:1" fill="#f0ebe3" d="M 202.5,80.5 C 200.809,81.8637 199.142,83.197 197.5,84.5C 197.167,84.5 196.833,84.5 196.5,84.5C 194.421,84.0293 192.421,83.3627 190.5,82.5C 192.21,77.817 195.543,76.317 200.5,78C 201.381,78.7083 202.047,79.5416 202.5,80.5 Z"/></g>
<g><path style="opacity:1" fill="#f16057" d="M 297.5,73.5 C 304.004,73.1377 305.671,75.6377 302.5,81C 295.745,81.7558 294.078,79.2558 297.5,73.5 Z"/></g>
<g><path style="opacity:1" fill="#1f4a75" d="M 163.5,63.5 C 165.352,71.0554 169.019,77.7221 174.5,83.5C 177.443,84.2435 180.443,84.7435 183.5,85C 186.167,86.6667 188.833,88.3333 191.5,90C 197.566,91.8956 201.899,90.0622 204.5,84.5C 205.865,87.959 205.531,91.2924 203.5,94.5C 200.551,91.8356 197.551,92.0022 194.5,95C 190.179,95.499 185.846,95.6657 181.5,95.5C 174.912,92.2152 169.578,87.5486 165.5,81.5C 164.074,76.7755 162.741,72.1088 161.5,67.5C 161.229,65.6203 161.896,64.287 163.5,63.5 Z"/></g>
<g><path style="opacity:1" fill="#282d43" d="M 196.5,84.5 C 196.833,84.5 197.167,84.5 197.5,84.5C 198.782,85.7082 198.782,87.0416 197.5,88.5C 195.358,87.5629 195.024,86.2296 196.5,84.5 Z"/></g>
<g><path style="opacity:1" fill="#f8a271" d="M 162.5,82.5 C 162.833,82.5 163.167,82.5 163.5,82.5C 163.337,84.8568 163.503,87.1902 164,89.5C 164.333,87.8333 164.667,86.1667 165,84.5C 171.159,91.3209 177.992,97.4876 185.5,103C 188.146,103.497 190.813,103.664 193.5,103.5C 194.728,110.778 191.728,115.278 184.5,117C 174.813,118.578 166.146,116.412 158.5,110.5C 157.451,106.868 156.117,103.535 154.5,100.5C 160.738,96.3785 163.405,90.3785 162.5,82.5 Z"/></g>
<g><path style="opacity:1" fill="#122b42" d="M 203.5,94.5 C 201.065,97.9297 197.731,99.5963 193.5,99.5C 188.687,100.259 184.687,98.9253 181.5,95.5C 185.846,95.6657 190.179,95.499 194.5,95C 197.551,92.0022 200.551,91.8356 203.5,94.5 Z"/></g>
<g><path style="opacity:1" fill="#ee8555" d="M 165.5,81.5 C 169.578,87.5486 174.912,92.2152 181.5,95.5C 184.687,98.9253 188.687,100.259 193.5,99.5C 193.5,100.167 193.5,100.833 193.5,101.5C 193.5,102.167 193.5,102.833 193.5,103.5C 190.813,103.664 188.146,103.497 185.5,103C 177.992,97.4876 171.159,91.3209 165,84.5C 164.667,86.1667 164.333,87.8333 164,89.5C 163.503,87.1902 163.337,84.8568 163.5,82.5C 163.842,81.6618 164.508,81.3284 165.5,81.5 Z"/></g>
<g><path style="opacity:1" fill="#fec832" d="M 193.5,101.5 C 205.439,105.636 216.772,111.136 227.5,118C 239.777,131.069 249.11,145.903 255.5,162.5C 256.167,163.5 256.833,164.5 257.5,165.5C 259.283,170.232 261.949,174.399 265.5,178C 275.301,178.992 284.968,179.826 294.5,180.5C 294.5,180.833 294.5,181.167 294.5,181.5C 294.739,183.467 294.406,185.301 293.5,187C 287.833,188.667 282.167,190.333 276.5,192C 264.764,194.446 254.93,191.28 247,182.5C 243.054,176.221 238.721,170.221 234,164.5C 230.733,158.757 228.066,152.757 226,146.5C 225.333,161.5 225.333,176.5 226,191.5C 226.717,192.044 227.217,192.711 227.5,193.5C 225.52,205.455 224.854,217.788 225.5,230.5C 225.737,231.791 225.404,232.791 224.5,233.5C 224.662,231.473 224.495,229.473 224,227.5C 218.007,234.664 210.34,238.664 201,239.5C 198.37,239.536 195.87,239.036 193.5,238C 190.933,235.604 188.6,233.104 186.5,230.5C 192.332,229.613 197.999,227.779 203.5,225C 204.701,224.097 205.535,222.931 206,221.5C 206.333,218.167 206.667,214.833 207,211.5C 209.832,210.038 211.999,208.038 213.5,205.5C 217.657,202.938 217.491,200.938 213,199.5C 205.844,201.276 198.678,202.942 191.5,204.5C 193.093,199.974 194.093,195.307 194.5,190.5C 191.956,190.104 189.789,190.771 188,192.5C 187.109,197.288 184.942,201.288 181.5,204.5C 180.252,203.666 179.585,202.333 179.5,200.5C 181.453,192.811 180.62,185.477 177,178.5C 169.493,173.747 162.16,168.747 155,163.5C 153.333,160.5 151.667,157.5 150,154.5C 147.335,144.175 144.835,133.841 142.5,123.5C 144.292,114.924 149.625,110.591 158.5,110.5C 166.146,116.412 174.813,118.578 184.5,117C 191.728,115.278 194.728,110.778 193.5,103.5C 193.5,102.833 193.5,102.167 193.5,101.5 Z"/></g>
<g><path style="opacity:1" fill="#f3ba24" d="M 154.5,100.5 C 156.117,103.535 157.451,106.868 158.5,110.5C 149.625,110.591 144.292,114.924 142.5,123.5C 144.835,133.841 147.335,144.175 150,154.5C 151.667,157.5 153.333,160.5 155,163.5C 162.16,168.747 169.493,173.747 177,178.5C 180.62,185.477 181.453,192.811 179.5,200.5C 179.585,202.333 180.252,203.666 181.5,204.5C 180.22,205.931 178.553,206.598 176.5,206.5C 176.476,212.857 176.81,219.19 177.5,225.5C 177.762,226.978 177.429,228.311 176.5,229.5C 173.93,230.634 171.264,231.468 168.5,232C 158.193,233.715 147.86,235.715 137.5,238C 133.08,238.768 128.747,238.602 124.5,237.5C 116.167,236.913 110.001,232.913 106,225.5C 100.131,213.027 96.9642,200.027 96.5,186.5C 96.5,179.833 96.5,173.167 96.5,166.5C 96.5,166.167 96.5,165.833 96.5,165.5C 97.4511,164.081 97.7845,162.415 97.5,160.5C 98.245,151.451 99.4116,142.451 101,133.5C 103,130.167 105,126.833 107,123.5C 120.63,111.436 136.464,103.769 154.5,100.5 Z"/></g>
<g><path style="opacity:1" fill="#fec831" d="M 120.5,115.5 C 129.771,118.948 135.271,125.614 137,135.5C 138.079,145.125 138.579,154.791 138.5,164.5C 138.739,178.285 137.905,191.952 136,205.5C 136.5,206 137,206.5 137.5,207C 150.178,207.595 162.845,207.428 175.5,206.5C 175.5,209.167 175.5,211.833 175.5,214.5C 164.437,216.628 153.271,217.961 142,218.5C 125.363,219.528 117.863,211.695 119.5,195C 119.491,168.442 119.824,141.942 120.5,115.5 Z"/></g>
<g><path style="opacity:1" fill="#272f44" d="M 328.5,133.5 C 328.5,145.833 328.5,158.167 328.5,170.5C 327.505,159.679 327.172,148.679 327.5,137.5C 327.586,136.504 327.252,135.671 326.5,135C 317.921,134.184 309.421,134.351 301,135.5C 300.172,152.338 300.338,169.005 301.5,185.5C 308.313,186.491 315.313,186.825 322.5,186.5C 319.062,187.823 315.229,188.49 311,188.5C 307.167,188.333 303.333,188.167 299.5,188C 298.556,185.281 298.223,182.448 298.5,179.5C 298.5,174.833 298.5,170.167 298.5,165.5C 298.5,163.167 298.5,160.833 298.5,158.5C 298.183,149.915 298.517,141.415 299.5,133C 309.342,132.175 319.009,132.342 328.5,133.5 Z"/></g>
<g><path style="opacity:1" fill="#f4a6a2" d="M 327.5,137.5 C 326.596,138.209 326.263,139.209 326.5,140.5C 325.357,140.908 324.357,141.575 323.5,142.5C 316.902,157.365 309.569,171.698 301.5,185.5C 300.338,169.005 300.172,152.338 301,135.5C 309.421,134.351 317.921,134.184 326.5,135C 327.252,135.671 327.586,136.504 327.5,137.5 Z"/></g>
<g><path style="opacity:1" fill="#b54f4e" d="M 327.5,137.5 C 327.172,148.679 327.505,159.679 328.5,170.5C 328.833,170.5 329.167,170.5 329.5,170.5C 328.791,171.404 327.791,171.737 326.5,171.5C 326.5,161.167 326.5,150.833 326.5,140.5C 326.263,139.209 326.596,138.209 327.5,137.5 Z"/></g>
<g><path style="opacity:1" fill="#f15f56" d="M 326.5,140.5 C 326.5,150.833 326.5,161.167 326.5,171.5C 324.801,171.34 323.134,171.506 321.5,172C 320.978,172.561 320.645,173.228 320.5,174C 321.136,178.212 321.802,182.379 322.5,186.5C 315.313,186.825 308.313,186.491 301.5,185.5C 309.569,171.698 316.902,157.365 323.5,142.5C 324.357,141.575 325.357,140.908 326.5,140.5 Z"/></g>
<g><path style="opacity:1" fill="#174b79" d="M 97.5,160.5 C 97.7845,162.415 97.4511,164.081 96.5,165.5C 93.8333,165.5 91.1667,165.5 88.5,165.5C 83.8215,165.334 79.1548,165.501 74.5,166C 72.2911,167.873 70.4578,170.04 69,172.5C 68.5,210.832 68.3333,249.165 68.5,287.5C 66.7745,289.228 65.4411,291.228 64.5,293.5C 63.5023,268.339 63.1689,243.005 63.5,217.5C 63.3334,200.163 63.5001,182.83 64,165.5C 65.5,164 67,162.5 68.5,161C 78.1609,160.5 87.8276,160.334 97.5,160.5 Z"/></g>
<g><path style="opacity:1" fill="#174b79" d="M 298.5,158.5 C 298.5,160.833 298.5,163.167 298.5,165.5C 284.833,165.5 271.167,165.5 257.5,165.5C 256.833,164.5 256.167,163.5 255.5,162.5C 269.637,161.031 283.97,159.697 298.5,158.5 Z"/></g>
<g><path style="opacity:1" fill="#194c79" d="M 328.5,133.5 C 329.33,141.99 329.83,150.657 330,159.5C 336.245,159.243 341.578,161.243 346,165.5C 346.173,169.541 346.673,173.541 347.5,177.5C 348.086,177.709 348.586,178.043 349,178.5C 349.667,182.5 349.667,186.5 349,190.5C 348.586,190.957 348.086,191.291 347.5,191.5C 346.5,222.493 346.167,253.493 346.5,284.5C 346.826,293.017 346.493,301.35 345.5,309.5C 343.929,307.365 342.596,305.032 341.5,302.5C 341.667,259.165 341.5,215.832 341,172.5C 338.451,167.979 334.617,165.645 329.5,165.5C 329.5,167.167 329.5,168.833 329.5,170.5C 329.167,170.5 328.833,170.5 328.5,170.5C 328.5,158.167 328.5,145.833 328.5,133.5 Z"/></g>
<g><path style="opacity:1" fill="#fdfdfd" d="M 96.5,166.5 C 96.5,173.167 96.5,179.833 96.5,186.5C 94.1667,186.5 91.8333,186.5 89.5,186.5C 89.5,179.833 89.5,173.167 89.5,166.5C 91.8333,166.5 94.1667,166.5 96.5,166.5 Z"/></g>
<g><path style="opacity:1" fill="#f6f6f6" d="M 257.5,165.5 C 271.167,165.5 284.833,165.5 298.5,165.5C 298.5,170.167 298.5,174.833 298.5,179.5C 297.292,180.234 295.959,180.567 294.5,180.5C 284.968,179.826 275.301,178.992 265.5,178C 261.949,174.399 259.283,170.232 257.5,165.5 Z"/></g>
<g><path style="opacity:1" fill="#4d82ad" d="M 88.5,165.5 C 88.5,201.833 88.5,238.167 88.5,274.5C 86.901,274.232 85.5676,274.566 84.5,275.5C 82.2166,275.608 80.2166,276.441 78.5,278C 74.6393,280.696 71.306,283.863 68.5,287.5C 68.3333,249.165 68.5,210.832 69,172.5C 70.4578,170.04 72.2911,167.873 74.5,166C 79.1548,165.501 83.8215,165.334 88.5,165.5 Z"/></g>
<g><path style="opacity:1" fill="#5284af" d="M 341.5,302.5 C 337.443,297.41 333.61,292.077 330,286.5C 326.855,283.368 323.688,280.368 320.5,277.5C 320.5,249.5 320.5,221.5 320.5,193.5C 324.084,192.185 327.751,191.018 331.5,190C 332.91,189.632 333.91,188.799 334.5,187.5C 334.405,182.586 334.239,177.586 334,172.5C 332.67,171.418 331.17,170.751 329.5,170.5C 329.5,168.833 329.5,167.167 329.5,165.5C 334.617,165.645 338.451,167.979 341,172.5C 341.5,215.832 341.667,259.165 341.5,302.5 Z"/></g>
<g><path style="opacity:1" fill="#f19e6f" d="M 329.5,170.5 C 331.17,170.751 332.67,171.418 334,172.5C 334.239,177.586 334.405,182.586 334.5,187.5C 333.91,188.799 332.91,189.632 331.5,190C 327.751,191.018 324.084,192.185 320.5,193.5C 312.616,195.369 304.616,196.369 296.5,196.5C 296.392,191.29 295.725,186.29 294.5,181.5C 294.5,181.167 294.5,180.833 294.5,180.5C 295.959,180.567 297.292,180.234 298.5,179.5C 298.223,182.448 298.556,185.281 299.5,188C 303.333,188.167 307.167,188.333 311,188.5C 315.229,188.49 319.062,187.823 322.5,186.5C 321.802,182.379 321.136,178.212 320.5,174C 320.645,173.228 320.978,172.561 321.5,172C 323.134,171.506 324.801,171.34 326.5,171.5C 327.791,171.737 328.791,171.404 329.5,170.5 Z"/></g>
<g><path style="opacity:1" fill="#f3ba24" d="M 294.5,181.5 C 295.725,186.29 296.392,191.29 296.5,196.5C 296.635,198.554 295.968,200.221 294.5,201.5C 292.847,201.66 291.514,202.326 290.5,203.5C 286.819,203.573 284.486,205.24 283.5,208.5C 271.626,210.672 259.626,212.005 247.5,212.5C 238.61,208.942 231.943,202.942 227.5,194.5C 227.5,194.167 227.5,193.833 227.5,193.5C 227.217,192.711 226.717,192.044 226,191.5C 225.333,176.5 225.333,161.5 226,146.5C 228.066,152.757 230.733,158.757 234,164.5C 238.721,170.221 243.054,176.221 247,182.5C 254.93,191.28 264.764,194.446 276.5,192C 282.167,190.333 287.833,188.667 293.5,187C 294.406,185.301 294.739,183.467 294.5,181.5 Z"/></g>
<g><path style="opacity:1" fill="#96cee0" d="M 89.5,186.5 C 91.8333,186.5 94.1667,186.5 96.5,186.5C 96.9642,200.027 100.131,213.027 106,225.5C 110.001,232.913 116.167,236.913 124.5,237.5C 124.177,243.69 124.51,249.69 125.5,255.5C 127,260.661 130,264.661 134.5,267.5C 132.183,282.262 131.183,297.262 131.5,312.5C 117.167,312.5 102.833,312.5 88.5,312.5C 88.8128,308.958 88.4794,305.625 87.5,302.5C 89.3815,297.735 91.5482,293.068 94,288.5C 96.6168,279.694 93.4502,275.36 84.5,275.5C 85.5676,274.566 86.901,274.232 88.5,274.5C 89.4981,245.338 89.8314,216.005 89.5,186.5 Z"/></g>
<g><path style="opacity:1" fill="#fafcfb" d="M 320.5,193.5 C 320.5,221.5 320.5,249.5 320.5,277.5C 318.297,277.396 316.297,276.73 314.5,275.5C 312.312,274.377 309.979,274.377 307.5,275.5C 301.167,275.5 294.833,275.5 288.5,275.5C 288.5,276.5 288.5,277.5 288.5,278.5C 294.167,278.5 299.833,278.5 305.5,278.5C 305.167,279.167 304.833,279.833 304.5,280.5C 284.5,281.167 284.5,281.833 304.5,282.5C 304.5,283.167 304.5,283.833 304.5,284.5C 299.167,284.5 293.833,284.5 288.5,284.5C 288.5,285.5 288.5,286.5 288.5,287.5C 293.833,287.5 299.167,287.5 304.5,287.5C 306.723,290.802 308.39,294.468 309.5,298.5C 310.674,299.514 311.34,300.847 311.5,302.5C 303.833,302.5 296.167,302.5 288.5,302.5C 288.5,303.5 288.5,304.5 288.5,305.5C 296.903,306.134 304.903,305.467 312.5,303.5C 313.674,304.514 314.34,305.847 314.5,307.5C 317.232,311.579 319.565,315.913 321.5,320.5C 320.507,328.984 320.174,337.651 320.5,346.5C 243.5,346.5 166.5,346.5 89.5,346.5C 89.5,337.5 89.5,328.5 89.5,319.5C 119.671,319.831 149.671,319.498 179.5,318.5C 204.5,318.5 229.5,318.5 254.5,318.5C 255.833,316.5 255.833,314.5 254.5,312.5C 254.5,279.5 254.5,246.5 254.5,213.5C 251.941,213.802 249.607,213.468 247.5,212.5C 259.626,212.005 271.626,210.672 283.5,208.5C 284.486,205.24 286.819,203.573 290.5,203.5C 298.316,204.492 306.316,204.826 314.5,204.5C 314.5,203.5 314.5,202.5 314.5,201.5C 307.833,201.5 301.167,201.5 294.5,201.5C 295.968,200.221 296.635,198.554 296.5,196.5C 304.616,196.369 312.616,195.369 320.5,193.5 Z"/></g>
<g><path style="opacity:1" fill="#f8a371" d="M 213.5,205.5 C 210.594,206.787 207.594,207.787 204.5,208.5C 204.364,211.551 204.698,214.551 205.5,217.5C 203.799,219.211 202.466,221.211 201.5,223.5C 200.205,224.098 198.872,224.598 197.5,225C 190.842,225.5 184.175,225.666 177.5,225.5C 176.81,219.19 176.476,212.857 176.5,206.5C 178.553,206.598 180.22,205.931 181.5,204.5C 184.942,201.288 187.109,197.288 188,192.5C 189.789,190.771 191.956,190.104 194.5,190.5C 194.093,195.307 193.093,199.974 191.5,204.5C 198.678,202.942 205.844,201.276 213,199.5C 217.491,200.938 217.657,202.938 213.5,205.5 Z"/></g>
<g><path style="opacity:1" fill="#a2d5e8" d="M 297.5,197.5 C 302.875,197.172 308.208,197.505 313.5,198.5C 310.833,198.833 308.167,199.167 305.5,199.5C 302.41,199.478 299.743,198.812 297.5,197.5 Z"/></g>
<g><path style="opacity:1" fill="#bcdfe9" d="M 294.5,201.5 C 301.167,201.5 307.833,201.5 314.5,201.5C 314.5,202.5 314.5,203.5 314.5,204.5C 306.316,204.826 298.316,204.492 290.5,203.5C 291.514,202.326 292.847,201.66 294.5,201.5 Z"/></g>
<g><path style="opacity:1" fill="#95cee0" d="M 227.5,194.5 C 231.943,202.942 238.61,208.942 247.5,212.5C 249.607,213.468 251.941,213.802 254.5,213.5C 254.5,246.5 254.5,279.5 254.5,312.5C 241.167,312.5 227.833,312.5 214.5,312.5C 215.882,299.369 216.882,286.202 217.5,273C 217.499,269.317 217.165,265.817 216.5,262.5C 220.332,258.198 222.832,253.198 224,247.5C 224.499,242.845 224.666,238.179 224.5,233.5C 225.404,232.791 225.737,231.791 225.5,230.5C 226.167,218.5 226.833,206.5 227.5,194.5 Z"/></g>
<g><path style="opacity:1" fill="#cbca88" d="M 227.5,193.5 C 227.5,193.833 227.5,194.167 227.5,194.5C 226.833,206.5 226.167,218.5 225.5,230.5C 224.854,217.788 225.52,205.455 227.5,193.5 Z"/></g>
<g><path style="opacity:1" fill="#cce7f0" d="M 288.5,205.5 C 297.167,205.5 305.833,205.5 314.5,205.5C 314.5,206.833 314.5,208.167 314.5,209.5C 305.833,209.5 297.167,209.5 288.5,209.5C 288.5,208.167 288.5,206.833 288.5,205.5 Z"/></g>
<g><path style="opacity:1" fill="#bce0ec" d="M 289.5,217.5 C 297.833,217.5 306.167,217.5 314.5,217.5C 314.5,218.5 314.5,219.5 314.5,220.5C 305.808,220.831 297.141,220.498 288.5,219.5C 288.863,218.817 289.196,218.15 289.5,217.5 Z"/></g>
<g><path style="opacity:1" fill="#9d8f85" d="M 62.5,217.5 C 62.8333,217.5 63.1667,217.5 63.5,217.5C 63.1689,243.005 63.5023,268.339 64.5,293.5C 64.5,294.167 64.1667,294.5 63.5,294.5C 62.5104,288.69 62.1771,282.69 62.5,276.5C 62.5,256.833 62.5,237.167 62.5,217.5 Z"/></g>
<g><path style="opacity:1" fill="#aad7e6" d="M 289.5,222.5 C 297.86,222.169 306.193,222.502 314.5,223.5C 310.333,223.833 306.167,224.167 302,224.5C 297.443,224.491 293.276,223.825 289.5,222.5 Z"/></g>
<g><path style="opacity:1" fill="#f6e1cb" d="M 59.5,218.5 C 59.6641,221.187 59.4974,223.854 59,226.5C 58.5776,228.426 57.4109,229.426 55.5,229.5C 55.3012,225.079 56.6345,221.413 59.5,218.5 Z"/></g>
<g><path style="opacity:1" fill="#d1a72f" d="M 213.5,205.5 C 211.999,208.038 209.832,210.038 207,211.5C 206.667,214.833 206.333,218.167 206,221.5C 205.535,222.931 204.701,224.097 203.5,225C 197.999,227.779 192.332,229.613 186.5,230.5C 184.143,230.337 181.81,230.503 179.5,231C 162.174,237.612 144.174,241.112 125.5,241.5C 125.5,246.167 125.5,250.833 125.5,255.5C 124.51,249.69 124.177,243.69 124.5,237.5C 128.747,238.602 133.08,238.768 137.5,238C 147.86,235.715 158.193,233.715 168.5,232C 171.264,231.468 173.93,230.634 176.5,229.5C 177.429,228.311 177.762,226.978 177.5,225.5C 184.175,225.666 190.842,225.5 197.5,225C 198.872,224.598 200.205,224.098 201.5,223.5C 202.466,221.211 203.799,219.211 205.5,217.5C 204.698,214.551 204.364,211.551 204.5,208.5C 207.594,207.787 210.594,206.787 213.5,205.5 Z"/></g>
<g><path style="opacity:1" fill="#fcc896" d="M 62.5,217.5 C 62.5,237.167 62.5,256.833 62.5,276.5C 58.732,285.848 55.3987,295.514 52.5,305.5C 53.0016,306.521 53.6683,306.688 54.5,306C 56.9515,301.718 59.9515,297.884 63.5,294.5C 64.1667,294.5 64.5,294.167 64.5,293.5C 65.4411,291.228 66.7745,289.228 68.5,287.5C 71.306,283.863 74.6393,280.696 78.5,278C 80.2166,276.441 82.2166,275.608 84.5,275.5C 93.4502,275.36 96.6168,279.694 94,288.5C 91.5482,293.068 89.3815,297.735 87.5,302.5C 81.9328,309.634 77.9328,317.634 75.5,326.5C 74.7321,327.263 74.2321,328.263 74,329.5C 73.5006,335.157 73.3339,340.824 73.5,346.5C 73.5,348.833 73.5,351.167 73.5,353.5C 72.4656,369.747 65.6323,383.081 53,393.5C 51.4661,396.595 51.2995,399.595 52.5,402.5C 52.5,403.167 52.5,403.833 52.5,404.5C 36.5,404.5 20.5,404.5 4.5,404.5C 4.16039,400.869 4.99372,397.536 7,394.5C 10.9158,389.004 14.5825,383.337 18,377.5C 21.3067,357.248 23.9734,336.915 26,316.5C 31.7437,304.013 37.7437,291.68 44,279.5C 47.0808,263.428 50.4142,247.428 54,231.5C 54.2784,230.584 54.7784,229.918 55.5,229.5C 57.4109,229.426 58.5776,228.426 59,226.5C 59.4974,223.854 59.6641,221.187 59.5,218.5C 60.209,217.596 61.209,217.263 62.5,217.5 Z"/></g>
<g><path style="opacity:1" fill="#badfeb" d="M 288.5,226.5 C 297.167,226.5 305.833,226.5 314.5,226.5C 314.5,227.5 314.5,228.5 314.5,229.5C 305.833,229.5 297.167,229.5 288.5,229.5C 288.5,228.5 288.5,227.5 288.5,226.5 Z"/></g>
<g><path style="opacity:1" fill="#7baecb" d="M 88.5,165.5 C 91.1667,165.5 93.8333,165.5 96.5,165.5C 96.5,165.833 96.5,166.167 96.5,166.5C 94.1667,166.5 91.8333,166.5 89.5,166.5C 89.5,173.167 89.5,179.833 89.5,186.5C 89.8314,216.005 89.4981,245.338 88.5,274.5C 88.5,238.167 88.5,201.833 88.5,165.5 Z"/></g>
<g><path style="opacity:1" fill="#f4867f" d="M 282.5,218.5 C 283.487,223.305 283.821,228.305 283.5,233.5C 276.5,233.5 269.5,233.5 262.5,233.5C 262.5,228.167 262.5,222.833 262.5,217.5C 269.354,217.176 276.021,217.509 282.5,218.5 Z"/></g>
<g><path style="opacity:1" fill="#f05951" d="M 282.5,218.5 C 282.5,223.167 282.5,227.833 282.5,232.5C 276.167,232.5 269.833,232.5 263.5,232.5C 263.5,227.833 263.5,223.167 263.5,218.5C 269.833,218.5 276.167,218.5 282.5,218.5 Z"/></g>
<g><path style="opacity:1" fill="#a0d3e4" d="M 289.5,231.5 C 297.528,231.169 305.528,231.502 313.5,232.5C 309.5,232.833 305.5,233.167 301.5,233.5C 297.107,233.491 293.107,232.824 289.5,231.5 Z"/></g>
<g><path style="opacity:1" fill="#f2b924" d="M 224.5,233.5 C 224.666,238.179 224.499,242.845 224,247.5C 222.832,253.198 220.332,258.198 216.5,262.5C 215.118,263.801 213.452,264.634 211.5,265C 203.117,266.347 194.783,267.847 186.5,269.5C 169.043,271.145 151.71,270.478 134.5,267.5C 130,264.661 127,260.661 125.5,255.5C 125.5,250.833 125.5,246.167 125.5,241.5C 144.174,241.112 162.174,237.612 179.5,231C 181.81,230.503 184.143,230.337 186.5,230.5C 188.6,233.104 190.933,235.604 193.5,238C 195.87,239.036 198.37,239.536 201,239.5C 210.34,238.664 218.007,234.664 224,227.5C 224.495,229.473 224.662,231.473 224.5,233.5 Z"/></g>
<g><path style="opacity:1" fill="#9cd1e2" d="M 289.5,244.5 C 297.86,244.169 306.193,244.502 314.5,245.5C 310.333,245.833 306.167,246.167 302,246.5C 297.443,246.491 293.276,245.825 289.5,244.5 Z"/></g>
<g><path style="opacity:1" fill="#c6d6e8" d="M 262.5,244.5 C 269.5,244.5 276.5,244.5 283.5,244.5C 283.5,249.833 283.5,255.167 283.5,260.5C 276.5,260.5 269.5,260.5 262.5,260.5C 262.5,255.167 262.5,249.833 262.5,244.5 Z"/></g>
<g><path style="opacity:1" fill="#aad7e6" d="M 289.5,249.5 C 297.528,249.169 305.528,249.502 313.5,250.5C 309.5,250.833 305.5,251.167 301.5,251.5C 297.107,251.491 293.107,250.824 289.5,249.5 Z"/></g>
<g><path style="opacity:1" fill="#174c7a" d="M 75.5,250.5 C 84.1408,250.364 86.4742,254.197 82.5,262C 72.4151,262.76 70.0818,258.927 75.5,250.5 Z"/></g>
<g><path style="opacity:1" fill="#bbdfeb" d="M 288.5,253.5 C 297.167,253.5 305.833,253.5 314.5,253.5C 314.5,254.5 314.5,255.5 314.5,256.5C 305.833,256.5 297.167,256.5 288.5,256.5C 288.5,255.5 288.5,254.5 288.5,253.5 Z"/></g>
<g><path style="opacity:1" fill="#a7d6e6" d="M 289.5,258.5 C 297.86,258.169 306.193,258.502 314.5,259.5C 310.333,259.833 306.167,260.167 302,260.5C 297.443,260.491 293.276,259.825 289.5,258.5 Z"/></g>
<g><path style="opacity:1" fill="#205482" d="M 329.5,247.5 C 330.822,247.33 331.989,247.663 333,248.5C 333.5,256.493 333.666,264.493 333.5,272.5C 331.856,272.714 330.356,272.38 329,271.5C 328.2,263.421 328.367,255.421 329.5,247.5 Z"/></g>
<g><path style="opacity:1" fill="#174c7a" d="M 216.5,262.5 C 217.165,265.817 217.499,269.317 217.5,273C 216.882,286.202 215.882,299.369 214.5,312.5C 202.833,312.5 191.167,312.5 179.5,312.5C 179.474,307.733 178.807,303.066 177.5,298.5C 175.127,289.983 177.627,283.316 185,278.5C 185.696,275.522 186.196,272.522 186.5,269.5C 194.783,267.847 203.117,266.347 211.5,265C 213.452,264.634 215.118,263.801 216.5,262.5 Z"/></g>
<g><path style="opacity:1" fill="#4f83af" d="M 134.5,267.5 C 151.71,270.478 169.043,271.145 186.5,269.5C 186.196,272.522 185.696,275.522 185,278.5C 177.627,283.316 175.127,289.983 177.5,298.5C 176.883,298.389 176.383,298.056 176,297.5C 175.781,302.582 175.281,307.582 174.5,312.5C 160.167,312.5 145.833,312.5 131.5,312.5C 131.183,297.262 132.183,282.262 134.5,267.5 Z"/></g>
<g><path style="opacity:1" fill="#9fd2e4" d="M 289.5,271.5 C 297.528,271.169 305.528,271.502 313.5,272.5C 309.5,272.833 305.5,273.167 301.5,273.5C 297.107,273.491 293.107,272.824 289.5,271.5 Z"/></g>
<g><path style="opacity:1" fill="#9cd1e3" d="M 261.5,271.5 C 268.833,271.5 276.167,271.5 283.5,271.5C 283.5,276.833 283.5,282.167 283.5,287.5C 276.167,287.5 268.833,287.5 261.5,287.5C 261.5,282.167 261.5,276.833 261.5,271.5 Z"/></g>
<g><path style="opacity:1" fill="#fee0c6" d="M 83.5,277.5 C 91.3771,276.977 93.5438,280.31 90,287.5C 88.7316,289.717 87.2316,291.717 85.5,293.5C 81.9667,291.571 78.6333,289.405 75.5,287C 77.6717,283.336 80.3384,280.169 83.5,277.5 Z"/></g>
<g><path style="opacity:1" fill="#b8dde9" d="M 307.5,275.5 C 307.5,275.833 307.5,276.167 307.5,276.5C 307.167,277.5 306.5,278.167 305.5,278.5C 299.833,278.5 294.167,278.5 288.5,278.5C 288.5,277.5 288.5,276.5 288.5,275.5C 294.833,275.5 301.167,275.5 307.5,275.5 Z"/></g>
<g><path style="opacity:1" fill="#fee0c5" d="M 314.5,275.5 C 313.244,275.461 312.244,275.961 311.5,277C 317.31,278.142 321.31,281.475 323.5,287C 320.457,289.277 317.291,291.444 314,293.5C 309.785,289.742 307.785,285.075 308,279.5C 311.3,277.443 311.133,276.443 307.5,276.5C 307.5,276.167 307.5,275.833 307.5,275.5C 309.979,274.377 312.312,274.377 314.5,275.5 Z"/></g>
<g><path style="opacity:1" fill="#a4d5e5" d="M 304.5,280.5 C 304.5,281.167 304.5,281.833 304.5,282.5C 284.5,281.833 284.5,281.167 304.5,280.5 Z"/></g>
<g><path style="opacity:1" fill="#b7ddea" d="M 304.5,284.5 C 304.5,285.5 304.5,286.5 304.5,287.5C 299.167,287.5 293.833,287.5 288.5,287.5C 288.5,286.5 288.5,285.5 288.5,284.5C 293.833,284.5 299.167,284.5 304.5,284.5 Z"/></g>
<g><path style="opacity:1" fill="#fcc796" d="M 314.5,275.5 C 316.297,276.73 318.297,277.396 320.5,277.5C 323.688,280.368 326.855,283.368 330,286.5C 333.61,292.077 337.443,297.41 341.5,302.5C 342.596,305.032 343.929,307.365 345.5,309.5C 345.369,310.376 345.702,311.043 346.5,311.5C 347.498,302.859 347.831,294.192 347.5,285.5C 354.798,292.297 361.965,299.297 369,306.5C 372.654,314.051 374.654,322.051 375,330.5C 376.387,345.205 378.053,359.871 380,374.5C 385.331,383.983 390.831,393.316 396.5,402.5C 380.2,404.485 363.534,405.152 346.5,404.5C 346.5,403.833 346.5,403.167 346.5,402.5C 347.701,399.595 347.534,396.595 346,393.5C 333.083,383.362 326.583,370.028 326.5,353.5C 326.345,344.978 325.678,336.644 324.5,328.5C 324.443,327.391 324.11,326.391 323.5,325.5C 323.204,323.597 322.537,321.93 321.5,320.5C 319.565,315.913 317.232,311.579 314.5,307.5C 314.34,305.847 313.674,304.514 312.5,303.5C 312.5,302.833 312.167,302.5 311.5,302.5C 311.34,300.847 310.674,299.514 309.5,298.5C 308.39,294.468 306.723,290.802 304.5,287.5C 304.5,286.5 304.5,285.5 304.5,284.5C 304.5,283.833 304.5,283.167 304.5,282.5C 304.5,281.833 304.5,281.167 304.5,280.5C 304.833,279.833 305.167,279.167 305.5,278.5C 306.5,278.167 307.167,277.5 307.5,276.5C 311.133,276.443 311.3,277.443 308,279.5C 307.785,285.075 309.785,289.742 314,293.5C 317.291,291.444 320.457,289.277 323.5,287C 321.31,281.475 317.31,278.142 311.5,277C 312.244,275.961 313.244,275.461 314.5,275.5 Z"/></g>
<g><path style="opacity:1" fill="#f8a473" d="M 62.5,276.5 C 62.1771,282.69 62.5104,288.69 63.5,294.5C 59.9515,297.884 56.9515,301.718 54.5,306C 53.6683,306.688 53.0016,306.521 52.5,305.5C 55.3987,295.514 58.732,285.848 62.5,276.5 Z"/></g>
<g><path style="opacity:1" fill="#a0d3e5" d="M 309.5,298.5 C 306.572,299.82 303.239,300.486 299.5,300.5C 296.167,300.167 292.833,299.833 289.5,299.5C 296.134,298.503 302.8,298.17 309.5,298.5 Z"/></g>
<g><path style="opacity:1" fill="#99847b" d="M 346.5,284.5 C 347.167,284.5 347.5,284.833 347.5,285.5C 347.831,294.192 347.498,302.859 346.5,311.5C 345.702,311.043 345.369,310.376 345.5,309.5C 346.493,301.35 346.826,293.017 346.5,284.5 Z"/></g>
<g><path style="opacity:1" fill="#ffe293" d="M 262.5,298.5 C 269.313,297.509 276.313,297.175 283.5,297.5C 283.5,303.167 283.5,308.833 283.5,314.5C 276.313,314.825 269.313,314.491 262.5,313.5C 269.167,313.5 275.833,313.5 282.5,313.5C 282.5,308.5 282.5,303.5 282.5,298.5C 275.833,298.5 269.167,298.5 262.5,298.5 Z"/></g>
<g><path style="opacity:1" fill="#badfeb" d="M 311.5,302.5 C 312.167,302.5 312.5,302.833 312.5,303.5C 304.903,305.467 296.903,306.134 288.5,305.5C 288.5,304.5 288.5,303.5 288.5,302.5C 296.167,302.5 303.833,302.5 311.5,302.5 Z"/></g>
<g><path style="opacity:1" fill="#95ccdf" d="M 177.5,298.5 C 178.807,303.066 179.474,307.733 179.5,312.5C 177.833,312.5 176.167,312.5 174.5,312.5C 175.281,307.582 175.781,302.582 176,297.5C 176.383,298.056 176.883,298.389 177.5,298.5 Z"/></g>
<g><path style="opacity:1" fill="#9fd3e4" d="M 314.5,307.5 C 310.724,308.825 306.557,309.491 302,309.5C 297.833,309.167 293.667,308.833 289.5,308.5C 297.807,307.502 306.14,307.169 314.5,307.5 Z"/></g>
<g><path style="opacity:1" fill="#ffc830" d="M 262.5,298.5 C 269.167,298.5 275.833,298.5 282.5,298.5C 282.5,303.5 282.5,308.5 282.5,313.5C 275.833,313.5 269.167,313.5 262.5,313.5C 262.5,308.5 262.5,303.5 262.5,298.5 Z"/></g>
<g><path style="opacity:1" fill="#d38789" d="M 88.5,312.5 C 102.833,312.5 117.167,312.5 131.5,312.5C 145.833,312.5 160.167,312.5 174.5,312.5C 176.167,312.5 177.833,312.5 179.5,312.5C 179.5,314.5 179.5,316.5 179.5,318.5C 149.671,319.498 119.671,319.831 89.5,319.5C 89.5,319.167 89.5,318.833 89.5,318.5C 89.1667,318.5 88.8333,318.5 88.5,318.5C 88.5,316.5 88.5,314.5 88.5,312.5 Z"/></g>
<g><path style="opacity:1" fill="#406379" d="M 214.5,312.5 C 227.833,312.5 241.167,312.5 254.5,312.5C 255.833,314.5 255.833,316.5 254.5,318.5C 254.5,316.833 254.5,315.167 254.5,313.5C 240.99,313.829 227.656,313.496 214.5,312.5 Z"/></g>
<g><path style="opacity:1" fill="#082841" d="M 179.5,312.5 C 191.167,312.5 202.833,312.5 214.5,312.5C 227.656,313.496 240.99,313.829 254.5,313.5C 254.5,315.167 254.5,316.833 254.5,318.5C 229.5,318.5 204.5,318.5 179.5,318.5C 179.5,316.5 179.5,314.5 179.5,312.5 Z"/></g>
<g><path style="opacity:1" fill="#badfeb" d="M 288.5,311.5 C 297.167,311.5 305.833,311.5 314.5,311.5C 314.5,312.5 314.5,313.5 314.5,314.5C 306.16,314.666 297.827,314.5 289.5,314C 288.748,313.329 288.414,312.496 288.5,311.5 Z"/></g>
<g><path style="opacity:1" fill="#f25a52" d="M 89.5,318.5 C 89.5,316.833 89.5,315.167 89.5,313.5C 119.167,313.5 148.833,313.5 178.5,313.5C 178.5,315.167 178.5,316.833 178.5,318.5C 148.833,318.5 119.167,318.5 89.5,318.5 Z"/></g>
<g><path style="opacity:1" fill="#4f82ae" d="M 87.5,302.5 C 88.4794,305.625 88.8128,308.958 88.5,312.5C 88.5,314.5 88.5,316.5 88.5,318.5C 88.5,328.167 88.5,337.833 88.5,347.5C 83.8333,347.5 79.1667,347.5 74.5,347.5C 74.5,347.167 74.5,346.833 74.5,346.5C 74.3357,339.798 74.669,333.131 75.5,326.5C 77.9328,317.634 81.9328,309.634 87.5,302.5 Z"/></g>
<g><path style="opacity:1" fill="#4c80ad" d="M 323.5,325.5 C 324.11,326.391 324.443,327.391 324.5,328.5C 324.5,334.833 324.5,341.167 324.5,347.5C 323.5,347.5 322.5,347.5 321.5,347.5C 321.334,339.826 321.5,332.159 322,324.5C 322.383,325.056 322.883,325.389 323.5,325.5 Z"/></g>
<g><path style="opacity:1" fill="#bbad9f" d="M 75.5,326.5 C 74.669,333.131 74.3357,339.798 74.5,346.5C 74.1667,346.5 73.8333,346.5 73.5,346.5C 73.3339,340.824 73.5006,335.157 74,329.5C 74.2321,328.263 74.7321,327.263 75.5,326.5 Z"/></g>
<g><path style="opacity:1" fill="#b6aa9c" d="M 324.5,328.5 C 325.678,336.644 326.345,344.978 326.5,353.5C 326.167,353.5 325.833,353.5 325.5,353.5C 325.5,353.167 325.5,352.833 325.5,352.5C 325.784,350.585 325.451,348.919 324.5,347.5C 324.5,341.167 324.5,334.833 324.5,328.5 Z"/></g>
<g><path style="opacity:1" fill="#b2c3d4" d="M 88.5,318.5 C 88.8333,318.5 89.1667,318.5 89.5,318.5C 89.5,318.833 89.5,319.167 89.5,319.5C 89.5,328.5 89.5,337.5 89.5,346.5C 166.5,346.5 243.5,346.5 320.5,346.5C 320.174,337.651 320.507,328.984 321.5,320.5C 322.537,321.93 323.204,323.597 323.5,325.5C 322.883,325.389 322.383,325.056 322,324.5C 321.5,332.159 321.334,339.826 321.5,347.5C 243.833,347.5 166.167,347.5 88.5,347.5C 88.5,337.833 88.5,328.167 88.5,318.5 Z"/></g>
<g><path style="opacity:1" fill="#bcdfeb" d="M 288.5,338.5 C 297.167,338.5 305.833,338.5 314.5,338.5C 314.5,339.5 314.5,340.5 314.5,341.5C 305.833,341.5 297.167,341.5 288.5,341.5C 288.5,340.5 288.5,339.5 288.5,338.5 Z"/></g>
<g><path style="opacity:1" fill="#c2e2ed" d="M 125.5,335.5 C 137.322,334.505 149.322,334.172 161.5,334.5C 161.5,336.833 161.5,339.167 161.5,341.5C 149.322,341.828 137.322,341.495 125.5,340.5C 137.167,340.5 148.833,340.5 160.5,340.5C 160.5,338.833 160.5,337.167 160.5,335.5C 148.833,335.5 137.167,335.5 125.5,335.5 Z"/></g>
<g><path style="opacity:1" fill="#94cee1" d="M 125.5,335.5 C 137.167,335.5 148.833,335.5 160.5,335.5C 160.5,337.167 160.5,338.833 160.5,340.5C 148.833,340.5 137.167,340.5 125.5,340.5C 125.5,338.833 125.5,337.167 125.5,335.5 Z"/></g>
<g><path style="opacity:1" fill="#b3dce9" d="M 288.5,333.5 C 297.167,333.5 305.833,333.5 314.5,333.5C 314.5,334.5 314.5,335.5 314.5,336.5C 305.833,336.5 297.167,336.5 288.5,336.5C 288.5,335.5 288.5,334.5 288.5,333.5 Z"/></g>
<g><path style="opacity:1" fill="#bee0ec" d="M 288.5,329.5 C 297.167,329.5 305.833,329.5 314.5,329.5C 314.5,330.5 314.5,331.5 314.5,332.5C 305.833,332.5 297.167,332.5 288.5,332.5C 288.5,331.5 288.5,330.5 288.5,329.5 Z"/></g>
<g><path style="opacity:1" fill="#c5d6e8" d="M 262.5,324.5 C 269.5,324.5 276.5,324.5 283.5,324.5C 283.5,330.167 283.5,335.833 283.5,341.5C 276.5,341.5 269.5,341.5 262.5,341.5C 262.5,335.833 262.5,330.167 262.5,324.5 Z"/></g>
<g><path style="opacity:1" fill="#b7ddea" d="M 288.5,324.5 C 297.167,324.5 305.833,324.5 314.5,324.5C 314.5,325.5 314.5,326.5 314.5,327.5C 305.833,327.5 297.167,327.5 288.5,327.5C 288.5,326.5 288.5,325.5 288.5,324.5 Z"/></g>
<g><path style="opacity:1" fill="#ffc935" d="M 103.5,323.5 C 112.006,323.17 115.839,327.17 115,335.5C 112.497,341.461 107.997,343.628 101.5,342C 96.9191,338.562 95.4191,334.062 97,328.5C 98.8049,326.174 100.972,324.508 103.5,323.5 Z"/></g>
<g><path style="opacity:1" fill="#cde8f0" d="M 238.5,331.5 C 238.5,329.833 238.5,328.167 238.5,326.5C 200.833,326.5 163.167,326.5 125.5,326.5C 125.5,328.167 125.5,329.833 125.5,331.5C 124.539,329.735 124.205,327.735 124.5,325.5C 162.833,325.5 201.167,325.5 239.5,325.5C 239.795,327.735 239.461,329.735 238.5,331.5 Z"/></g>
<g><path style="opacity:1" fill="#99d0e2" d="M 238.5,331.5 C 200.833,331.5 163.167,331.5 125.5,331.5C 125.5,329.833 125.5,328.167 125.5,326.5C 163.167,326.5 200.833,326.5 238.5,326.5C 238.5,328.167 238.5,329.833 238.5,331.5 Z"/></g>
<g><path style="opacity:1" fill="#184c7a" d="M 74.5,347.5 C 79.1667,347.5 83.8333,347.5 88.5,347.5C 166.167,347.5 243.833,347.5 321.5,347.5C 322.5,347.5 323.5,347.5 324.5,347.5C 325.451,348.919 325.784,350.585 325.5,352.5C 241.833,352.5 158.167,352.5 74.5,352.5C 74.5,350.833 74.5,349.167 74.5,347.5 Z"/></g>
<g><path style="opacity:1" fill="#617e9e" d="M 73.5,346.5 C 73.8333,346.5 74.1667,346.5 74.5,346.5C 74.5,346.833 74.5,347.167 74.5,347.5C 74.5,349.167 74.5,350.833 74.5,352.5C 158.167,352.5 241.833,352.5 325.5,352.5C 325.5,352.833 325.5,353.167 325.5,353.5C 319.5,353.5 313.5,353.5 307.5,353.5C 235.5,353.5 163.5,353.5 91.5,353.5C 85.5,353.5 79.5,353.5 73.5,353.5C 73.5,351.167 73.5,348.833 73.5,346.5 Z"/></g>
<g><path style="opacity:1" fill="#f8a372" d="M 73.5,353.5 C 79.5,353.5 85.5,353.5 91.5,353.5C 89.6409,361.557 86.1409,368.89 81,375.5C 75.6,383.573 68.4333,389.406 59.5,393C 56.9491,396.044 54.6158,399.211 52.5,402.5C 51.2995,399.595 51.4661,396.595 53,393.5C 65.6323,383.081 72.4656,369.747 73.5,353.5 Z"/></g>
<g><path style="opacity:1" fill="#f8a272" d="M 307.5,353.5 C 313.5,353.5 319.5,353.5 325.5,353.5C 325.833,353.5 326.167,353.5 326.5,353.5C 326.583,370.028 333.083,383.362 346,393.5C 347.534,396.595 347.701,399.595 346.5,402.5C 345.392,400.219 344.058,398.052 342.5,396C 328.368,387.532 317.201,376.032 309,361.5C 308.178,358.883 307.678,356.216 307.5,353.5 Z"/></g>
<g><path style="opacity:1" fill="#c4d4e7" d="M 91.5,353.5 C 163.5,353.5 235.5,353.5 307.5,353.5C 307.678,356.216 308.178,358.883 309,361.5C 317.201,376.032 328.368,387.532 342.5,396C 344.058,398.052 345.392,400.219 346.5,402.5C 346.5,403.167 346.5,403.833 346.5,404.5C 248.5,404.5 150.5,404.5 52.5,404.5C 52.5,403.833 52.5,403.167 52.5,402.5C 54.6158,399.211 56.9491,396.044 59.5,393C 68.4333,389.406 75.6,383.573 81,375.5C 86.1409,368.89 89.6409,361.557 91.5,353.5 Z"/></g>
<g><path style="opacity:1" fill="#fefefe" d="M 396.5,402.5 C 400.854,404.348 405.52,405.015 410.5,404.5C 410.5,559.167 410.5,713.833 410.5,868.5C 273.5,868.5 136.5,868.5 -0.5,868.5C -0.5,713.833 -0.5,559.167 -0.5,404.5C 1.16667,404.5 2.83333,404.5 4.5,404.5C 20.5,404.5 36.5,404.5 52.5,404.5C 150.5,404.5 248.5,404.5 346.5,404.5C 363.534,405.152 380.2,404.485 396.5,402.5 Z"/></g>
<g><path style="opacity:1" fill="#000100" d="M 77.5,462.5 C 80.5184,462.335 83.5184,462.502 86.5,463C 91.4756,465.853 91.3089,467.687 86,468.5C 78.4133,465.413 75.7466,468.08 78,476.5C 81.5105,479.586 83.6771,478.919 84.5,474.5C 83.5,474.5 82.5,474.5 81.5,474.5C 81.5,473.167 81.5,471.833 81.5,470.5C 84.5,470.5 87.5,470.5 90.5,470.5C 92.7377,478.583 89.7377,482.583 81.5,482.5C 72.1461,480.798 69.3127,475.464 73,466.5C 74.3968,464.93 75.8968,463.596 77.5,462.5 Z"/></g>
<g><path style="opacity:1" fill="#000100" d="M 117.5,462.5 C 118.461,464.265 118.795,466.265 118.5,468.5C 119.5,468.5 120.5,468.5 121.5,468.5C 121.5,469.833 121.5,471.167 121.5,472.5C 120.5,472.5 119.5,472.5 118.5,472.5C 118.5,474.5 118.5,476.5 118.5,478.5C 119.5,478.5 120.5,478.5 121.5,478.5C 121.5,479.833 121.5,481.167 121.5,482.5C 118.635,482.945 116.135,482.278 114,480.5C 113.792,477.002 112.959,473.669 111.5,470.5C 112.619,467.054 114.619,464.387 117.5,462.5 Z"/></g>
<g><path style="opacity:1" fill="#000100" d="M 136.5,462.5 C 140.257,462.071 143.757,462.737 147,464.5C 147.5,465.5 148,466.5 148.5,467.5C 144.959,468.321 141.626,468.321 138.5,467.5C 142.197,469.023 145.697,471.023 149,473.5C 150.165,477.684 148.665,480.517 144.5,482C 139.563,483.369 135.396,482.203 132,478.5C 131.517,477.552 131.351,476.552 131.5,475.5C 134.984,475.328 137.984,476.328 140.5,478.5C 142,478.547 143,477.881 143.5,476.5C 139.803,474.977 136.303,472.977 133,470.5C 131.78,466.707 132.947,464.04 136.5,462.5 Z"/></g>
<g><path style="opacity:1" fill="#000100" d="M 157.5,462.5 C 158.461,464.265 158.795,466.265 158.5,468.5C 159.5,468.5 160.5,468.5 161.5,468.5C 161.5,469.833 161.5,471.167 161.5,472.5C 160.5,472.5 159.5,472.5 158.5,472.5C 158.5,474.5 158.5,476.5 158.5,478.5C 159.5,478.5 160.5,478.5 161.5,478.5C 161.5,479.833 161.5,481.167 161.5,482.5C 158.635,482.945 156.135,482.278 154,480.5C 153.792,477.002 152.959,473.669 151.5,470.5C 152.619,467.054 154.619,464.387 157.5,462.5 Z"/></g>
<g><path style="opacity:1" fill="#000100" d="M 200.5,462.5 C 201.461,464.265 201.795,466.265 201.5,468.5C 202.5,468.5 203.5,468.5 204.5,468.5C 204.5,469.833 204.5,471.167 204.5,472.5C 203.5,472.5 202.5,472.5 201.5,472.5C 201.5,474.5 201.5,476.5 201.5,478.5C 202.5,478.5 203.5,478.5 204.5,478.5C 204.5,479.833 204.5,481.167 204.5,482.5C 201.635,482.945 199.135,482.278 197,480.5C 196.792,477.002 195.959,473.669 194.5,470.5C 195.619,467.054 197.619,464.387 200.5,462.5 Z"/></g>
<g><path style="opacity:1" fill="#000100" d="M 234.5,462.5 C 236.167,462.5 237.833,462.5 239.5,462.5C 239.5,469.167 239.5,475.833 239.5,482.5C 235.505,481.35 231.505,481.183 227.5,482C 224.231,478.547 223.731,474.714 226,470.5C 228.209,468.294 230.709,467.96 233.5,469.5C 234.474,467.257 234.808,464.924 234.5,462.5 Z"/></g>
<g><path style="opacity:1" fill="#000100" d="M 251.5,462.5 C 257.5,462.5 263.5,462.5 269.5,462.5C 269.5,463.833 269.5,465.167 269.5,466.5C 267.5,466.5 265.5,466.5 263.5,466.5C 263.5,471.833 263.5,477.167 263.5,482.5C 261.5,482.5 259.5,482.5 257.5,482.5C 257.5,477.167 257.5,471.833 257.5,466.5C 255.5,466.5 253.5,466.5 251.5,466.5C 251.5,465.167 251.5,463.833 251.5,462.5 Z"/></g>
<g><path style="opacity:1" fill="#000100" d="M 296.5,462.5 C 298.167,462.5 299.833,462.5 301.5,462.5C 301.5,469.167 301.5,475.833 301.5,482.5C 297.505,481.35 293.505,481.183 289.5,482C 286.231,478.547 285.731,474.714 288,470.5C 290.209,468.294 292.709,467.96 295.5,469.5C 296.474,467.257 296.808,464.924 296.5,462.5 Z"/></g>
<g><path style="opacity:1" fill="#0d0d0d" d="M 98.5,468.5 C 105.384,467.085 109.051,469.752 109.5,476.5C 105.818,476.335 102.152,476.501 98.5,477C 99.263,477.944 100.263,478.444 101.5,478.5C 104.132,477.56 106.798,477.393 109.5,478C 104.532,483.766 99.3655,483.932 94,478.5C 92.5713,473.783 94.0713,470.45 98.5,468.5 Z"/></g>
<g><path style="opacity:1" fill="#000100" d="M 166.5,468.5 C 169.518,468.335 172.518,468.502 175.5,469C 176.308,469.308 176.975,469.808 177.5,470.5C 178.433,474.429 178.766,478.429 178.5,482.5C 176.278,482.822 174.444,482.155 173,480.5C 170,483.167 167,483.167 164,480.5C 163.28,478.888 163.446,477.388 164.5,476C 167.56,475.152 170.56,474.152 173.5,473C 170.111,473.187 166.778,473.021 163.5,472.5C 164.524,471.148 165.524,469.815 166.5,468.5 Z"/></g>
<g><path style="opacity:1" fill="#000100" d="M 182.5,468.5 C 186.187,469.403 189.854,469.736 193.5,469.5C 191.992,471.507 190.158,473.174 188,474.5C 187.503,477.146 187.336,479.813 187.5,482.5C 185.833,482.5 184.167,482.5 182.5,482.5C 182.5,477.833 182.5,473.167 182.5,468.5 Z"/></g>
<g><path style="opacity:1" fill="#0d0d0d" d="M 211.5,468.5 C 218.384,467.085 222.051,469.752 222.5,476.5C 218.818,476.335 215.152,476.501 211.5,477C 212.263,477.944 213.263,478.444 214.5,478.5C 217.132,477.56 219.798,477.393 222.5,478C 217.532,483.766 212.366,483.932 207,478.5C 205.571,473.783 207.071,470.45 211.5,468.5 Z"/></g>
<g><path style="opacity:1" fill="#000100" d="M 273.5,468.5 C 281.212,467.715 284.712,471.048 284,478.5C 279,483.833 274,483.833 269,478.5C 267.571,473.783 269.071,470.45 273.5,468.5 Z"/></g>
<g><path style="opacity:1" fill="#000100" d="M 307.5,468.5 C 310.518,468.335 313.518,468.502 316.5,469C 317.308,469.308 317.975,469.808 318.5,470.5C 319.433,474.429 319.766,478.429 319.5,482.5C 317.278,482.822 315.444,482.155 314,480.5C 311,483.167 308,483.167 305,480.5C 304.28,478.888 304.446,477.388 305.5,476C 308.56,475.152 311.56,474.152 314.5,473C 311.111,473.187 307.778,473.021 304.5,472.5C 305.524,471.148 306.524,469.815 307.5,468.5 Z"/></g>
<g><path style="opacity:1" fill="#000100" d="M 321.5,469.5 C 323.265,468.539 325.265,468.205 327.5,468.5C 328.998,479.423 330.498,479.756 332,469.5C 333.726,468.424 335.559,468.257 337.5,469C 335.475,474.074 333.641,479.241 332,484.5C 329.454,487.186 326.287,488.186 322.5,487.5C 322.5,486.167 322.5,484.833 322.5,483.5C 324.429,483.769 326.095,483.269 327.5,482C 325.597,477.697 323.597,473.53 321.5,469.5 Z"/></g>
<g><path style="opacity:1" fill="#fefffe" d="M 230.5,472.5 C 234.35,472.701 235.35,474.534 233.5,478C 229.537,478.118 228.537,476.284 230.5,472.5 Z"/></g>
<g><path style="opacity:1" fill="#fefffe" d="M 274.5,472.5 C 279.159,472.015 280.492,473.848 278.5,478C 273.728,478.81 272.395,476.977 274.5,472.5 Z"/></g>
<g><path style="opacity:1" fill="#fefffe" d="M 292.5,472.5 C 296.35,472.701 297.35,474.534 295.5,478C 291.537,478.118 290.537,476.284 292.5,472.5 Z"/></g>
<g><path style="opacity:1" fill="#fefffe" d="M 170.5,476.5 C 174.315,476.712 174.315,477.378 170.5,478.5C 169.833,478.333 169.167,478.167 168.5,478C 169.416,477.722 170.082,477.222 170.5,476.5 Z"/></g>
<g><path style="opacity:1" fill="#fefffe" d="M 311.5,476.5 C 315.315,476.712 315.315,477.378 311.5,478.5C 310.833,478.333 310.167,478.167 309.5,478C 310.416,477.722 311.082,477.222 311.5,476.5 Z"/></g>
<g><path style="opacity:1" fill="#000000" d="M 17.5,619.5 C 18.7943,621.048 19.4609,623.048 19.5,625.5C 19.1667,627.5 18.8333,629.5 18.5,631.5C 17.5091,627.555 17.1758,623.555 17.5,619.5 Z"/></g>
<g><path style="opacity:1" fill="#000000" d="M 45.5,619.5 C 47.337,619.639 47.6704,620.306 46.5,621.5C 45.7025,621.043 45.3691,620.376 45.5,619.5 Z"/></g>
<g><path style="opacity:1" fill="#000000" d="M 222.5,619.5 C 223.794,621.048 224.461,623.048 224.5,625.5C 224.167,627.5 223.833,629.5 223.5,631.5C 222.509,627.555 222.176,623.555 222.5,619.5 Z"/></g>
<g><path style="opacity:1" fill="#000000" d="M 226.5,619.5 C 228.337,619.639 228.67,620.306 227.5,621.5C 226.702,621.043 226.369,620.376 226.5,619.5 Z"/></g>
<g><path style="opacity:1" fill="#000000" d="M 253.5,619.5 C 254.794,621.048 255.461,623.048 255.5,625.5C 255.167,627.5 254.833,629.5 254.5,631.5C 253.402,630.385 252.235,630.385 251,631.5C 247.795,630.202 246.795,627.868 248,624.5C 249.396,622.473 251.062,622.14 253,623.5C 253.49,622.207 253.657,620.873 253.5,619.5 Z"/></g>
<g><path style="opacity:1" fill="#000000" d="M 261.5,619.5 C 262.794,621.048 263.461,623.048 263.5,625.5C 263.167,627.5 262.833,629.5 262.5,631.5C 261.509,627.555 261.176,623.555 261.5,619.5 Z"/></g>
<g><path style="opacity:1" fill="#000000" d="M 300.5,619.5 C 302.337,619.639 302.67,620.306 301.5,621.5C 300.702,621.043 300.369,620.376 300.5,619.5 Z"/></g>
<g><path style="opacity:1" fill="#000000" d="M 328.5,619.5 C 330.337,619.639 330.67,620.306 329.5,621.5C 328.702,621.043 328.369,620.376 328.5,619.5 Z"/></g>
<g><path style="opacity:1" fill="#131313" d="M 37.5,620.5 C 40.1125,621.095 40.1125,621.929 37.5,623C 39.4694,627.047 38.1361,629.047 33.5,629C 35.9412,629.036 37.9412,629.869 39.5,631.5C 37.5592,634.334 34.8926,635.168 31.5,634C 30.7146,631.958 31.048,629.958 32.5,628C 31.4464,626.612 31.2797,625.112 32,623.5C 34.2092,623.011 36.0425,622.011 37.5,620.5 Z"/></g>
<g><path style="opacity:1" fill="#000000" d="M 63.5,620.5 C 65.0783,621.066 66.4116,622.066 67.5,623.5C 64.8333,625.833 64.8333,628.167 67.5,630.5C 66.3493,631.731 65.1827,631.731 64,630.5C 63.0284,627.087 62.8617,623.753 63.5,620.5 Z"/></g>
<g><path style="opacity:1" fill="#000000" d="M 91.5,620.5 C 93.0783,621.066 94.4116,622.066 95.5,623.5C 92.8333,625.833 92.8333,628.167 95.5,630.5C 94.3493,631.731 93.1827,631.731 92,630.5C 91.0284,627.087 90.8617,623.753 91.5,620.5 Z"/></g>
<g><path style="opacity:1" fill="#000000" d="M 113.5,620.5 C 115.078,621.066 116.412,622.066 117.5,623.5C 114.833,625.833 114.833,628.167 117.5,630.5C 116.349,631.731 115.183,631.731 114,630.5C 113.028,627.087 112.862,623.753 113.5,620.5 Z"/></g>
<g><path style="opacity:1" fill="#131313" d="M 313.5,631.5 C 314.249,630.469 314.915,629.302 315.5,628C 314.446,626.612 314.28,625.112 315,623.5C 317.343,622.873 319.51,621.873 321.5,620.5C 322.604,621.631 322.271,622.465 320.5,623C 322.469,627.047 321.136,629.047 316.5,629C 318.167,629.333 319.833,629.667 321.5,630C 322.344,633.01 321.011,634.51 317.5,634.5C 315.018,634.89 313.685,633.89 313.5,631.5 Z"/></g>
<g><path style="opacity:1" fill="#000000" d="M 24.5,622.5 C 30.6426,623.026 31.9759,625.86 28.5,631C 23.5036,631.664 21.6703,629.498 23,624.5C 23.7172,623.956 24.2172,623.289 24.5,622.5 Z"/></g>
<g><path style="opacity:1" fill="#000000" d="M 45.5,622.5 C 46.7647,623.514 47.4313,625.014 47.5,627C 47.1667,628.5 46.8333,630 46.5,631.5C 45.5159,628.572 45.1826,625.572 45.5,622.5 Z"/></g>
<g><path style="opacity:1" fill="#000000" d="M 49.5,622.5 C 51.932,622.636 54.432,622.969 57,623.5C 57.8184,626.227 57.6517,628.894 56.5,631.5C 55.5258,629.257 55.1924,626.924 55.5,624.5C 54.1779,624.33 53.0113,624.663 52,625.5C 51.8078,627.577 51.3078,629.577 50.5,631.5C 49.5159,628.572 49.1826,625.572 49.5,622.5 Z"/></g>
<g><path style="opacity:1" fill="#000000" d="M 71.5,622.5 C 77.6426,623.026 78.9759,625.86 75.5,631C 70.5036,631.664 68.6703,629.498 70,624.5C 70.7172,623.956 71.2172,623.289 71.5,622.5 Z"/></g>
<g><path style="opacity:1" fill="#000000" d="M 84.5,622.5 C 86.6648,622.116 88.3315,622.783 89.5,624.5C 84.5681,624.09 84.4015,625.09 89,627.5C 89.6114,631.088 88.1114,632.254 84.5,631C 84.0426,630.586 83.7093,630.086 83.5,629.5C 88.4319,629.91 88.5985,628.91 84,626.5C 83.4209,625.072 83.5876,623.738 84.5,622.5 Z"/></g>
<g><path style="opacity:1" fill="#151515" d="M 99.5,622.5 C 101.467,622.261 103.301,622.594 105,623.5C 105.818,626.227 105.652,628.894 104.5,631.5C 102.398,631.521 100.232,631.187 98,630.5C 97.2888,628.633 97.7888,627.133 99.5,626C 98.8333,625.667 98.1667,625.333 97.5,625C 98.3805,624.292 99.0472,623.458 99.5,622.5 Z"/></g>
<g><path style="opacity:1" fill="#000000" d="M 106.5,622.5 C 108.225,623.278 109.891,623.611 111.5,623.5C 110.758,624.287 109.925,624.953 109,625.5C 108.808,627.577 108.308,629.577 107.5,631.5C 106.516,628.572 106.183,625.572 106.5,622.5 Z"/></g>
<g><path style="opacity:1" fill="#000000" d="M 130.5,624.5 C 129.067,627.282 127.9,630.282 127,633.5C 125.817,634.731 124.651,634.731 123.5,633.5C 124.311,632.784 124.978,631.95 125.5,631C 124.794,628.38 123.794,625.88 122.5,623.5C 123.167,622.167 123.833,622.167 124.5,623.5C 126.253,629.954 127.587,629.954 128.5,623.5C 129.694,622.33 130.361,622.663 130.5,624.5 Z"/></g>
<g><path style="opacity:1" fill="#000000" d="M 130.5,624.5 C 136.256,621.078 138.756,622.745 138,629.5C 132.638,632.671 130.138,631.004 130.5,624.5 Z"/></g>
<g><path style="opacity:1" fill="#000000" d="M 140.5,622.5 C 142.344,624.279 143.01,626.612 142.5,629.5C 143.822,629.67 144.989,629.337 146,628.5C 146.192,626.423 146.692,624.423 147.5,622.5C 148.833,625.5 148.833,628.5 147.5,631.5C 145.398,631.521 143.232,631.187 141,630.5C 140.503,627.854 140.336,625.187 140.5,622.5 Z"/></g>
<g><path style="opacity:1" fill="#000000" d="M 149.5,622.5 C 151.225,623.278 152.891,623.611 154.5,623.5C 153.758,624.287 152.925,624.953 152,625.5C 151.808,627.577 151.308,629.577 150.5,631.5C 149.516,628.572 149.183,625.572 149.5,622.5 Z"/></g>
<g><path style="opacity:1" fill="#000000" d="M 160.5,622.5 C 162.39,623.18 164.39,623.347 166.5,623C 169.167,625.667 169.167,628.333 166.5,631C 165.216,631.684 164.049,631.517 163,630.5C 162.781,631.938 162.281,633.271 161.5,634.5C 160.509,630.555 160.176,626.555 160.5,622.5 Z"/></g>
<g><path style="opacity:1" fill="#141414" d="M 171.5,622.5 C 174.833,622.5 176.5,624.167 176.5,627.5C 174.712,627.215 173.045,627.548 171.5,628.5C 173.108,629.242 174.775,629.409 176.5,629C 172.987,632.608 170.654,631.941 169.5,627C 169.519,625.167 170.185,623.667 171.5,622.5 Z"/></g>
<g><path style="opacity:1" fill="#000000" d="M 179.5,622.5 C 181.225,623.278 182.891,623.611 184.5,623.5C 183.758,624.287 182.925,624.953 182,625.5C 181.808,627.577 181.308,629.577 180.5,631.5C 179.516,628.572 179.183,625.572 179.5,622.5 Z"/></g>
<g><path style="opacity:1" fill="#000000" d="M 186.5,622.5 C 188.665,622.116 190.332,622.783 191.5,624.5C 186.568,624.09 186.401,625.09 191,627.5C 191.611,631.088 190.111,632.254 186.5,631C 186.043,630.586 185.709,630.086 185.5,629.5C 190.432,629.91 190.599,628.91 186,626.5C 185.421,625.072 185.588,623.738 186.5,622.5 Z"/></g>
<g><path style="opacity:1" fill="#000000" d="M 195.5,622.5 C 201.643,623.026 202.976,625.86 199.5,631C 194.504,631.664 192.67,629.498 194,624.5C 194.717,623.956 195.217,623.289 195.5,622.5 Z"/></g>
<g><path style="opacity:1" fill="#000000" d="M 202.5,622.5 C 204.932,622.636 207.432,622.969 210,623.5C 210.818,626.227 210.652,628.894 209.5,631.5C 208.526,629.257 208.192,626.924 208.5,624.5C 207.178,624.33 206.011,624.663 205,625.5C 204.808,627.577 204.308,629.577 203.5,631.5C 202.516,628.572 202.183,625.572 202.5,622.5 Z"/></g>
<g><path style="opacity:1" fill="#151515" d="M 214.5,622.5 C 216.467,622.261 218.301,622.594 220,623.5C 220.818,626.227 220.652,628.894 219.5,631.5C 217.398,631.521 215.232,631.187 213,630.5C 212.289,628.633 212.789,627.133 214.5,626C 213.833,625.667 213.167,625.333 212.5,625C 213.381,624.292 214.047,623.458 214.5,622.5 Z"/></g>
<g><path style="opacity:1" fill="#000000" d="M 226.5,622.5 C 227.765,623.514 228.431,625.014 228.5,627C 228.167,628.5 227.833,630 227.5,631.5C 226.516,628.572 226.183,625.572 226.5,622.5 Z"/></g>
<g><path style="opacity:1" fill="#000000" d="M 231.5,622.5 C 233.5,622.5 235.5,622.5 237.5,622.5C 237.256,625.263 235.923,627.429 233.5,629C 234.938,629.219 236.271,629.719 237.5,630.5C 235.604,631.466 233.604,631.799 231.5,631.5C 231.744,628.737 233.077,626.571 235.5,625C 233.563,624.878 232.23,624.045 231.5,622.5 Z"/></g>
<g><path style="opacity:1" fill="#141414" d="M 240.5,622.5 C 243.833,622.5 245.5,624.167 245.5,627.5C 243.712,627.215 242.045,627.548 240.5,628.5C 242.108,629.242 243.775,629.409 245.5,629C 241.987,632.608 239.654,631.941 238.5,627C 238.519,625.167 239.185,623.667 240.5,622.5 Z"/></g>
<g><path style="opacity:1" fill="#141414" d="M 268.5,622.5 C 271.833,622.5 273.5,624.167 273.5,627.5C 271.712,627.215 270.045,627.548 268.5,628.5C 270.108,629.242 271.775,629.409 273.5,629C 269.987,632.608 267.654,631.941 266.5,627C 266.519,625.167 267.185,623.667 268.5,622.5 Z"/></g>
<g><path style="opacity:1" fill="#151515" d="M 277.5,622.5 C 279.467,622.261 281.301,622.594 283,623.5C 283.818,626.227 283.652,628.894 282.5,631.5C 280.398,631.521 278.232,631.187 276,630.5C 275.289,628.633 275.789,627.133 277.5,626C 276.833,625.667 276.167,625.333 275.5,625C 276.381,624.292 277.047,623.458 277.5,622.5 Z"/></g>
<g><path style="opacity:1" fill="#000000" d="M 285.5,622.5 C 287.225,623.278 288.891,623.611 290.5,623.5C 289.758,624.287 288.925,624.953 288,625.5C 287.808,627.577 287.308,629.577 286.5,631.5C 285.516,628.572 285.183,625.572 285.5,622.5 Z"/></g>
<g><path style="opacity:1" fill="#000000" d="M 291.5,622.5 C 293.932,622.636 296.432,622.969 299,623.5C 299.818,626.227 299.652,628.894 298.5,631.5C 297.526,629.257 297.192,626.924 297.5,624.5C 296.178,624.33 295.011,624.663 294,625.5C 293.808,627.577 293.308,629.577 292.5,631.5C 291.516,628.572 291.183,625.572 291.5,622.5 Z"/></g>
<g><path style="opacity:1" fill="#000000" d="M 300.5,622.5 C 301.765,623.514 302.431,625.014 302.5,627C 302.167,628.5 301.833,630 301.5,631.5C 300.516,628.572 300.183,625.572 300.5,622.5 Z"/></g>
<g><path style="opacity:1" fill="#000000" d="M 313.5,631.5 C 311.656,629.721 310.99,627.388 311.5,624.5C 310.178,624.33 309.011,624.663 308,625.5C 307.808,627.577 307.308,629.577 306.5,631.5C 305.167,628.5 305.167,625.5 306.5,622.5C 308.602,622.479 310.768,622.813 313,623.5C 313.497,626.146 313.664,628.813 313.5,631.5 Z"/></g>
<g><path style="opacity:1" fill="#000000" d="M 328.5,622.5 C 329.787,623.871 330.453,625.705 330.5,628C 330.333,629.833 330.167,631.667 330,633.5C 328.817,634.731 327.651,634.731 326.5,633.5C 328.312,630.101 328.979,626.434 328.5,622.5 Z"/></g>
<g><path style="opacity:1" fill="#000000" d="M 334.5,622.5 C 340.643,623.026 341.976,625.86 338.5,631C 333.504,631.664 331.67,629.498 333,624.5C 333.717,623.956 334.217,623.289 334.5,622.5 Z"/></g>
<g><path style="opacity:1" fill="#000000" d="M 342.5,622.5 C 344.344,624.279 345.01,626.612 344.5,629.5C 345.822,629.67 346.989,629.337 348,628.5C 348.192,626.423 348.692,624.423 349.5,622.5C 350.833,625.5 350.833,628.5 349.5,631.5C 347.398,631.521 345.232,631.187 343,630.5C 342.503,627.854 342.336,625.187 342.5,622.5 Z"/></g>
<g><path style="opacity:1" fill="#000000" d="M 352.5,622.5 C 356.482,622.658 360.482,622.825 364.5,623C 365.783,625.795 365.783,628.628 364.5,631.5C 363.526,629.257 363.192,626.924 363.5,624.5C 362.178,624.33 361.011,624.663 360,625.5C 359.808,627.577 359.308,629.577 358.5,631.5C 357.041,622.39 355.374,622.39 353.5,631.5C 352.516,628.572 352.183,625.572 352.5,622.5 Z"/></g>
<g><path style="opacity:1" fill="#141414" d="M 369.5,622.5 C 372.833,622.5 374.5,624.167 374.5,627.5C 372.712,627.215 371.045,627.548 369.5,628.5C 371.108,629.242 372.775,629.409 374.5,629C 370.987,632.608 368.654,631.941 367.5,627C 367.519,625.167 368.185,623.667 369.5,622.5 Z"/></g>
<g><path style="opacity:1" fill="#000000" d="M 375.5,622.5 C 377.614,623.907 379.114,625.907 380,628.5C 380.346,626.782 380.846,625.115 381.5,623.5C 382.167,622.167 382.833,622.167 383.5,623.5C 382.235,626.796 381.068,630.129 380,633.5C 378.817,634.731 377.651,634.731 376.5,633.5C 377.311,632.784 377.978,631.95 378.5,631C 377.591,628.105 376.591,625.272 375.5,622.5 Z"/></g>
<g><path style="opacity:1" fill="#fefffe" d="M 25.5,624.5 C 28.9563,625.536 29.2896,627.203 26.5,629.5C 24.2957,628.218 23.9624,626.551 25.5,624.5 Z"/></g>
<g><path style="opacity:1" fill="#fefffe" d="M 33.5,624.5 C 34.675,624.281 35.675,624.614 36.5,625.5C 34.9483,626.798 33.9483,626.465 33.5,624.5 Z"/></g>
<g><path style="opacity:1" fill="#fefffe" d="M 72.5,624.5 C 75.9563,625.536 76.2896,627.203 73.5,629.5C 71.2957,628.218 70.9624,626.551 72.5,624.5 Z"/></g>
<g><path style="opacity:1" fill="#fefffe" d="M 133.5,624.5 C 136.956,625.536 137.29,627.203 134.5,629.5C 132.296,628.218 131.962,626.551 133.5,624.5 Z"/></g>
<g><path style="opacity:1" fill="#fefffe" d="M 163.5,624.5 C 166.956,625.536 167.29,627.203 164.5,629.5C 162.296,628.218 161.962,626.551 163.5,624.5 Z"/></g>
<g><path style="opacity:1" fill="#fefffe" d="M 196.5,624.5 C 199.956,625.536 200.29,627.203 197.5,629.5C 195.296,628.218 194.962,626.551 196.5,624.5 Z"/></g>
<g><path style="opacity:1" fill="#fefffe" d="M 250.5,624.5 C 253.956,625.536 254.29,627.203 251.5,629.5C 249.296,628.218 248.962,626.551 250.5,624.5 Z"/></g>
<g><path style="opacity:1" fill="#fefffe" d="M 316.5,624.5 C 317.675,624.281 318.675,624.614 319.5,625.5C 317.948,626.798 316.948,626.465 316.5,624.5 Z"/></g>
<g><path style="opacity:1" fill="#fefffe" d="M 335.5,624.5 C 338.956,625.536 339.29,627.203 336.5,629.5C 334.296,628.218 333.962,626.551 335.5,624.5 Z"/></g>
<g><path style="opacity:1" fill="#fefffe" d="M 99.5,627.5 C 100.978,627.238 102.311,627.571 103.5,628.5C 102.833,628.833 102.167,629.167 101.5,629.5C 100.287,629.253 99.62,628.586 99.5,627.5 Z"/></g>
<g><path style="opacity:1" fill="#fefffe" d="M 214.5,627.5 C 215.978,627.238 217.311,627.571 218.5,628.5C 217.833,628.833 217.167,629.167 216.5,629.5C 215.287,629.253 214.62,628.586 214.5,627.5 Z"/></g>
<g><path style="opacity:1" fill="#fefffe" d="M 277.5,627.5 C 278.978,627.238 280.311,627.571 281.5,628.5C 280.833,628.833 280.167,629.167 279.5,629.5C 278.287,629.253 277.62,628.586 277.5,627.5 Z"/></g>
<g><path style="opacity:1" fill="#000000" d="M 383.5,629.5 C 385.337,629.639 385.67,630.306 384.5,631.5C 383.702,631.043 383.369,630.376 383.5,629.5 Z"/></g>
</svg>
